{
	"asset":{
		"generator":"Khronos glTF Blender I/O v4.1.63",
		"version":"2.0"
	},
	"scene":0,
	"scenes":[
		{
			"name":"Scene",
			"nodes":[
				0
			]
		}
	],
	"nodes":[
		{
			"mesh":0,
			"name":"Cube.004_0"
		}
	],
	"materials":[
		{
			"doubleSided":true,
			"name":"windmill",
			"pbrMetallicRoughness":{
				"baseColorTexture":{
					"index":0
				},
				"metallicFactor":0,
				"roughnessFactor":0.6000000238418579
			}
		}
	],
	"meshes":[
		{
			"name":"Cube.004_0",
			"primitives":[
				{
					"attributes":{
						"POSITION":0,
						"NORMAL":1,
						"TEXCOORD_0":2,
						"TEXCOORD_1":3
					},
					"indices":4,
					"material":0
				}
			]
		}
	],
	"textures":[
		{
			"sampler":0,
			"source":0
		}
	],
	"images":[
		{
			"mimeType":"image/jpeg",
			"name":"windmill_baseColor",
			"uri":"Textures/windmill_baseColor.jpg"
		}
	],
	"accessors":[
		{
			"bufferView":0,
			"componentType":5126,
			"count":3103,
			"max":[
				0.34018000960350037,
				1.944159984588623,
				1.943910002708435
			],
			"min":[
				-0.13578000664710999,
				-1.9431999921798706,
				-1.944000005722046
			],
			"type":"VEC3"
		},
		{
			"bufferView":1,
			"componentType":5126,
			"count":3103,
			"type":"VEC3"
		},
		{
			"bufferView":2,
			"componentType":5126,
			"count":3103,
			"type":"VEC2"
		},
		{
			"bufferView":3,
			"componentType":5126,
			"count":3103,
			"type":"VEC2"
		},
		{
			"bufferView":4,
			"componentType":5123,
			"count":12924,
			"type":"SCALAR"
		}
	],
	"bufferViews":[
		{
			"buffer":0,
			"byteLength":37236,
			"byteOffset":0,
			"target":34962
		},
		{
			"buffer":0,
			"byteLength":37236,
			"byteOffset":37236,
			"target":34962
		},
		{
			"buffer":0,
			"byteLength":24824,
			"byteOffset":74472,
			"target":34962
		},
		{
			"buffer":0,
			"byteLength":24824,
			"byteOffset":99296,
			"target":34962
		},
		{
			"buffer":0,
			"byteLength":25848,
			"byteOffset":124120,
			"target":34963
		}
	],
	"samplers":[
		{
			"magFilter":9729,
			"minFilter":9987
		}
	],
	"buffers":[
		{
			"byteLength":149968,
			"uri":"blades.bin"
		}
	]
}
