{
	"asset":{
		"generator":"Khronos glTF Blender I/O v4.1.63",
		"version":"2.0"
	},
	"scene":0,
	"scenes":[
		{
			"name":"Scene",
			"nodes":[
				0
			]
		}
	],
	"nodes":[
		{
			"mesh":0,
			"name":"casa",
			"rotation":[
				0.4809401333332062,
				-0.5183596014976501,
				0.5183596014976501,
				0.48094016313552856
			],
			"scale":[
				0.410741925239563,
				0.410741925239563,
				0.410741925239563
			],
			"translation":[
				51.83455276489258,
				0.02175760269165039,
				8.521413803100586
			]
		}
	],
	"materials":[
		{
			"doubleSided":true,
			"name":"cottage_texture",
			"pbrMetallicRoughness":{
				"baseColorTexture":{
					"index":0
				},
				"metallicFactor":0,
				"roughnessFactor":0.5
			}
		}
	],
	"meshes":[
		{
			"name":"Cube.001",
			"primitives":[
				{
					"attributes":{
						"POSITION":0,
						"NORMAL":1,
						"TEXCOORD_0":2
					},
					"indices":3,
					"material":0
				}
			]
		}
	],
	"textures":[
		{
			"sampler":0,
			"source":0
		}
	],
	"images":[
		{
			"mimeType":"image/png",
			"name":"cottage_diffuse",
			"uri":"Textures/cottage_diffuse.png"
		}
	],
	"accessors":[
		{
			"bufferView":0,
			"componentType":5126,
			"count":697,
			"max":[
				14.683440208435059,
				10.435126304626465,
				-0.06411600112915039
			],
			"min":[
				-19.247343063354492,
				-10.300348281860352,
				-14.73786735534668
			],
			"type":"VEC3"
		},
		{
			"bufferView":1,
			"componentType":5126,
			"count":697,
			"type":"VEC3"
		},
		{
			"bufferView":2,
			"componentType":5126,
			"count":697,
			"type":"VEC2"
		},
		{
			"bufferView":3,
			"componentType":5123,
			"count":1434,
			"type":"SCALAR"
		}
	],
	"bufferViews":[
		{
			"buffer":0,
			"byteLength":8364,
			"byteOffset":0,
			"target":34962
		},
		{
			"buffer":0,
			"byteLength":8364,
			"byteOffset":8364,
			"target":34962
		},
		{
			"buffer":0,
			"byteLength":5576,
			"byteOffset":16728,
			"target":34962
		},
		{
			"buffer":0,
			"byteLength":2868,
			"byteOffset":22304,
			"target":34963
		}
	],
	"samplers":[
		{
			"magFilter":9729,
			"minFilter":9987
		}
	],
	"buffers":[
		{
			"byteLength":25172,
			"uri":"casa.bin"
		}
	]
}
