{
	"asset":{
		"generator":"Khronos glTF Blender I/O v4.1.63",
		"version":"2.0"
	},
	"extensionsUsed":[
		"KHR_materials_specular"
	],
	"scene":0,
	"scenes":[
		{
			"name":"Scene",
			"nodes":[
				0
			]
		}
	],
	"nodes":[
		{
			"mesh":0,
			"name":"UnstableStarref_2_0.001",
			"rotation":[
				-0.70710688829422,
				0,
				0,
				0.7071066498756409
			],
			"scale":[
				0.5417708158493042,
				0.5417709946632385,
				0.5417709946632385
			],
			"translation":[
				-13.39242172241211,
				0,
				0
			]
		}
	],
	"materials":[
		{
			"alphaMode":"BLEND",
			"extensions":{
				"KHR_materials_specular":{
					"specularColorFactor":[
						0.0,
						0.0,
						0.0
					]
				}
			},
			"name":"material_1.001",
			"pbrMetallicRoughness":{
				"baseColorTexture":{
					"index":0
				},
				"metallicFactor":0
			}
		}
	],
	"meshes":[
		{
			"name":"UnstableStarref_2_0.001",
			"primitives":[
				{
					"attributes":{
						"POSITION":0,
						"NORMAL":1,
						"TEXCOORD_0":2
					},
					"indices":3,
					"material":0
				}
			]
		}
	],
	"textures":[
		{
			"sampler":0,
			"source":0
		}
	],
	"images":[
		{
			"mimeType":"image/jpeg",
			"name":"Material.001_baseColor",
			"uri":"Textures/Material_001_baseColor.jpg"
		}
	],
	"accessors":[
		{
			"bufferView":0,
			"componentType":5126,
			"count":2143,
			"max":[
				10,
				10,
				10
			],
			"min":[
				-10,
				-10,
				-10
			],
			"type":"VEC3"
		},
		{
			"bufferView":1,
			"componentType":5126,
			"count":2143,
			"type":"VEC3"
		},
		{
			"bufferView":2,
			"componentType":5126,
			"count":2143,
			"type":"VEC2"
		},
		{
			"bufferView":3,
			"componentType":5123,
			"count":11904,
			"type":"SCALAR"
		}
	],
	"bufferViews":[
		{
			"buffer":0,
			"byteLength":25716,
			"byteOffset":0,
			"target":34962
		},
		{
			"buffer":0,
			"byteLength":25716,
			"byteOffset":25716,
			"target":34962
		},
		{
			"buffer":0,
			"byteLength":17144,
			"byteOffset":51432,
			"target":34962
		},
		{
			"buffer":0,
			"byteLength":23808,
			"byteOffset":68576,
			"target":34963
		}
	],
	"samplers":[
		{
			"magFilter":9729,
			"minFilter":9987
		}
	],
	"buffers":[
		{
			"byteLength":92384,
			"uri":"Moon.bin"
		}
	]
}
